<svg xmlns="http://www.w3.org/2000/svg" viewBox="0 0 512 512">
  <defs>
    <linearGradient id="bg" x1="96" x2="416" y1="64" y2="448" gradientUnits="userSpaceOnUse">
      <stop stop-color="#172554"/>
      <stop offset="0.52" stop-color="#233876"/>
      <stop offset="1" stop-color="#1E293B"/>
    </linearGradient>
    <linearGradient id="accent" x1="256" x2="256" y1="82" y2="430" gradientUnits="userSpaceOnUse">
      <stop stop-color="#78A6FF"/>
      <stop offset="1" stop-color="#32D583"/>
    </linearGradient>
  </defs>
  <rect width="448" height="448" x="32" y="32" fill="url(#bg)" rx="104"/>
  <path fill="#0B1026" opacity="0.28" d="M94 384c70 66 246 76 324-13v29c0 44-36 80-80 80H174c-44 0-80-36-80-80z"/>
  <rect width="122" height="216" x="195" y="84" fill="white" rx="61"/>
  <path fill="none" stroke="url(#accent)" stroke-linecap="round" stroke-width="34" d="M143 256c0 62 50 113 113 113s113-51 113-113"/>
  <rect width="34" height="68" x="239" y="356" fill="white" rx="10"/>
  <rect width="166" height="36" x="173" y="412" fill="white" rx="18"/>
  <circle cx="331" cy="122" r="37" fill="#32D583"/>
  <path fill="none" stroke="#D6FFF0" stroke-linecap="round" stroke-width="16" d="M314 122h34"/>
</svg>
